<svg xmlns="http://www.w3.org/2000/svg" viewBox="0 0 640 480">
  <defs>
    <linearGradient id="bg" x1="0" y1="0" x2="1" y2="1">
      <stop stop-color="#f8fafc" />
      <stop offset="1" stop-color="#dbeafe" />
    </linearGradient>
    <filter id="shadow" x="-30%" y="-30%" width="160%" height="160%">
      <feDropShadow dx="0" dy="10" stdDeviation="14" flood-color="#0f172a" flood-opacity=".24" />
    </filter>
  </defs>
  <rect width="640" height="480" rx="36" fill="url(#bg)" />
  <circle cx="320" cy="316" r="76" fill="#fff" stroke="#bfdbfe" stroke-width="3" />
  <circle cx="320" cy="316" r="38" fill="#2563eb" />
  <path d="M320 294v4m0 18v24" stroke="#fff" stroke-linecap="round" stroke-width="8" />
  <g filter="url(#shadow)">
    <path d="M206 92h228a20 20 0 0 1 20 20v86a20 20 0 0 1-20 20h-92l-22 28-22-28h-92a20 20 0 0 1-20-20v-86a20 20 0 0 1 20-20z" fill="#0f172a" />
  </g>
  <rect x="226" y="132" width="188" height="14" rx="7" fill="#fff" />
  <rect x="254" y="164" width="132" height="10" rx="5" fill="#94a3b8" />
</svg>
